<?xml version='1.0' encoding='UTF-8'?>
<svg width="69mm" height="69mm" version="1.1" viewBox="0 0 69 69" xmlns="http://www.w3.org/2000/svg"><path d="M4,4H5V5H4zM5,4H6V5H5zM6,4H7V5H6zM7,4H8V5H7zM8,4H9V5H8zM9,4H10V5H9zM10,4H11V5H10zM13,4H14V5H13zM14,4H15V5H14zM15,4H16V5H15zM17,4H18V5H17zM18,4H19V5H18zM20,4H21V5H20zM26,4H27V5H26zM29,4H30V5H29zM31,4H32V5H31zM33,4H34V5H33zM34,4H35V5H34zM39,4H40V5H39zM41,4H42V5H41zM46,4H47V5H46zM49,4H50V5H49zM55,4H56V5H55zM56,4H57V5H56zM58,4H59V5H58zM59,4H60V5H59zM60,4H61V5H60zM61,4H62V5H61zM62,4H63V5H62zM63,4H64V5H63zM64,4H65V5H64zM4,5H5V6H4zM10,5H11V6H10zM14,5H15V6H14zM17,5H18V6H17zM21,5H22V6H21zM24,5H25V6H24zM25,5H26V6H25zM26,5H27V6H26zM27,5H28V6H27zM29,5H30V6H29zM30,5H31V6H30zM34,5H35V6H34zM35,5H36V6H35zM36,5H37V6H36zM37,5H38V6H37zM39,5H40V6H39zM40,5H41V6H40zM41,5H42V6H41zM43,5H44V6H43zM44,5H45V6H44zM45,5H46V6H45zM48,5H49V6H48zM50,5H51V6H50zM51,5H52V6H51zM52,5H53V6H52zM53,5H54V6H53zM55,5H56V6H55zM56,5H57V6H56zM58,5H59V6H58zM64,5H65V6H64zM4,6H5V7H4zM6,6H7V7H6zM7,6H8V7H7zM8,6H9V7H8zM10,6H11V7H10zM12,6H13V7H12zM13,6H14V7H13zM15,6H16V7H15zM16,6H17V7H16zM17,6H18V7H17zM22,6H23V7H22zM23,6H24V7H23zM25,6H26V7H25zM27,6H28V7H27zM28,6H29V7H28zM29,6H30V7H29zM31,6H32V7H31zM33,6H34V7H33zM34,6H35V7H34zM36,6H37V7H36zM37,6H38V7H37zM39,6H40V7H39zM47,6H48V7H47zM49,6H50V7H49zM51,6H52V7H51zM52,6H53V7H52zM54,6H55V7H54zM55,6H56V7H55zM56,6H57V7H56zM58,6H59V7H58zM60,6H61V7H60zM61,6H62V7H61zM62,6H63V7H62zM64,6H65V7H64zM4,7H5V8H4zM6,7H7V8H6zM7,7H8V8H7zM8,7H9V8H8zM10,7H11V8H10zM12,7H13V8H12zM15,7H16V8H15zM17,7H18V8H17zM19,7H20V8H19zM20,7H21V8H20zM21,7H22V8H21zM22,7H23V8H22zM26,7H27V8H26zM28,7H29V8H28zM29,7H30V8H29zM31,7H32V8H31zM32,7H33V8H32zM35,7H36V8H35zM36,7H37V8H36zM39,7H40V8H39zM40,7H41V8H40zM42,7H43V8H42zM46,7H47V8H46zM47,7H48V8H47zM50,7H51V8H50zM51,7H52V8H51zM52,7H53V8H52zM53,7H54V8H53zM54,7H55V8H54zM56,7H57V8H56zM58,7H59V8H58zM60,7H61V8H60zM61,7H62V8H61zM62,7H63V8H62zM64,7H65V8H64zM4,8H5V9H4zM6,8H7V9H6zM7,8H8V9H7zM8,8H9V9H8zM10,8H11V9H10zM12,8H13V9H12zM16,8H17V9H16zM18,8H19V9H18zM20,8H21V9H20zM21,8H22V9H21zM23,8H24V9H23zM25,8H26V9H25zM26,8H27V9H26zM27,8H28V9H27zM30,8H31V9H30zM32,8H33V9H32zM33,8H34V9H33zM34,8H35V9H34zM35,8H36V9H35zM36,8H37V9H36zM37,8H38V9H37zM39,8H40V9H39zM40,8H41V9H40zM41,8H42V9H41zM43,8H44V9H43zM44,8H45V9H44zM46,8H47V9H46zM48,8H49V9H48zM52,8H53V9H52zM54,8H55V9H54zM55,8H56V9H55zM58,8H59V9H58zM60,8H61V9H60zM61,8H62V9H61zM62,8H63V9H62zM64,8H65V9H64zM4,9H5V10H4zM10,9H11V10H10zM12,9H13V10H12zM16,9H17V10H16zM19,9H20V10H19zM23,9H24V10H23zM24,9H25V10H24zM27,9H28V10H27zM30,9H31V10H30zM31,9H32V10H31zM32,9H33V10H32zM36,9H37V10H36zM39,9H40V10H39zM42,9H43V10H42zM43,9H44V10H43zM45,9H46V10H45zM49,9H50V10H49zM53,9H54V10H53zM54,9H55V10H54zM58,9H59V10H58zM64,9H65V10H64zM4,10H5V11H4zM5,10H6V11H5zM6,10H7V11H6zM7,10H8V11H7zM8,10H9V11H8zM9,10H10V11H9zM10,10H11V11H10zM12,10H13V11H12zM14,10H15V11H14zM16,10H17V11H16zM18,10H19V11H18zM20,10H21V11H20zM22,10H23V11H22zM24,10H25V11H24zM26,10H27V11H26zM28,10H29V11H28zM30,10H31V11H30zM32,10H33V11H32zM34,10H35V11H34zM36,10H37V11H36zM38,10H39V11H38zM40,10H41V11H40zM42,10H43V11H42zM44,10H45V11H44zM46,10H47V11H46zM48,10H49V11H48zM50,10H51V11H50zM52,10H53V11H52zM54,10H55V11H54zM56,10H57V11H56zM58,10H59V11H58zM59,10H60V11H59zM60,10H61V11H60zM61,10H62V11H61zM62,10H63V11H62zM63,10H64V11H63zM64,10H65V11H64zM12,11H13V12H12zM13,11H14V12H13zM14,11H15V12H14zM16,11H17V12H16zM19,11H20V12H19zM22,11H23V12H22zM26,11H27V12H26zM27,11H28V12H27zM28,11H29V12H28zM30,11H31V12H30zM31,11H32V12H31zM32,11H33V12H32zM36,11H37V12H36zM37,11H38V12H37zM39,11H40V12H39zM41,11H42V12H41zM42,11H43V12H42zM43,11H44V12H43zM44,11H45V12H44zM46,11H47V12H46zM47,11H48V12H47zM48,11H49V12H48zM50,11H51V12H50zM51,11H52V12H51zM54,11H55V12H54zM56,11H57V12H56zM4,12H5V13H4zM6,12H7V13H6zM7,12H8V13H7zM8,12H9V13H8zM9,12H10V13H9zM10,12H11V13H10zM14,12H15V13H14zM17,12H18V13H17zM18,12H19V13H18zM19,12H20V13H19zM20,12H21V13H20zM21,12H22V13H21zM23,12H24V13H23zM26,12H27V13H26zM27,12H28V13H27zM28,12H29V13H28zM31,12H32V13H31zM32,12H33V13H32zM33,12H34V13H33zM34,12H35V13H34zM35,12H36V13H35zM36,12H37V13H36zM38,12H39V13H38zM40,12H41V13H40zM45,12H46V13H45zM47,12H48V13H47zM49,12H50V13H49zM50,12H51V13H50zM52,12H53V13H52zM53,12H54V13H53zM55,12H56V13H55zM56,12H57V13H56zM58,12H59V13H58zM59,12H60V13H59zM60,12H61V13H60zM61,12H62V13H61zM62,12H63V13H62zM7,13H8V14H7zM8,13H9V14H8zM11,13H12V14H11zM12,13H13V14H12zM15,13H16V14H15zM16,13H17V14H16zM21,13H22V14H21zM23,13H24V14H23zM25,13H26V14H25zM27,13H28V14H27zM28,13H29V14H28zM29,13H30V14H29zM30,13H31V14H30zM33,13H34V14H33zM34,13H35V14H34zM35,13H36V14H35zM36,13H37V14H36zM39,13H40V14H39zM40,13H41V14H40zM41,13H42V14H41zM43,13H44V14H43zM45,13H46V14H45zM46,13H47V14H46zM47,13H48V14H47zM52,13H53V14H52zM53,13H54V14H53zM58,13H59V14H58zM59,13H60V14H59zM61,13H62V14H61zM62,13H63V14H62zM63,13H64V14H63zM6,14H7V15H6zM7,14H8V15H7zM10,14H11V15H10zM11,14H12V15H11zM15,14H16V15H15zM18,14H19V15H18zM19,14H20V15H19zM20,14H21V15H20zM21,14H22V15H21zM24,14H25V15H24zM26,14H27V15H26zM27,14H28V15H27zM28,14H29V15H28zM29,14H30V15H29zM31,14H32V15H31zM34,14H35V15H34zM37,14H38V15H37zM38,14H39V15H38zM40,14H41V15H40zM42,14H43V15H42zM47,14H48V15H47zM49,14H50V15H49zM50,14H51V15H50zM52,14H53V15H52zM53,14H54V15H53zM54,14H55V15H54zM55,14H56V15H55zM62,14H63V15H62zM64,14H65V15H64zM4,15H5V16H4zM5,15H6V16H5zM6,15H7V16H6zM8,15H9V16H8zM11,15H12V16H11zM13,15H14V16H13zM20,15H21V16H20zM21,15H22V16H21zM29,15H30V16H29zM34,15H35V16H34zM35,15H36V16H35zM36,15H37V16H36zM41,15H42V16H41zM42,15H43V16H42zM43,15H44V16H43zM44,15H45V16H44zM45,15H46V16H45zM46,15H47V16H46zM47,15H48V16H47zM48,15H49V16H48zM49,15H50V16H49zM53,15H54V16H53zM55,15H56V16H55zM57,15H58V16H57zM58,15H59V16H58zM60,15H61V16H60zM63,15H64V16H63zM4,16H5V17H4zM6,16H7V17H6zM7,16H8V17H7zM9,16H10V17H9zM10,16H11V17H10zM17,16H18V17H17zM20,16H21V17H20zM21,16H22V17H21zM23,16H24V17H23zM25,16H26V17H25zM27,16H28V17H27zM28,16H29V17H28zM29,16H30V17H29zM32,16H33V17H32zM33,16H34V17H33zM35,16H36V17H35zM36,16H37V17H36zM37,16H38V17H37zM39,16H40V17H39zM40,16H41V17H40zM46,16H47V17H46zM47,16H48V17H47zM49,16H50V17H49zM50,16H51V17H50zM51,16H52V17H51zM52,16H53V17H52zM53,16H54V17H53zM54,16H55V17H54zM55,16H56V17H55zM57,16H58V17H57zM61,16H62V17H61zM62,16H63V17H62zM63,16H64V17H63zM4,17H5V18H4zM6,17H7V18H6zM7,17H8V18H7zM9,17H10V18H9zM11,17H12V18H11zM12,17H13V18H12zM13,17H14V18H13zM14,17H15V18H14zM16,17H17V18H16zM17,17H18V18H17zM19,17H20V18H19zM25,17H26V18H25zM26,17H27V18H26zM27,17H28V18H27zM28,17H29V18H28zM29,17H30V18H29zM31,17H32V18H31zM32,17H33V18H32zM39,17H40V18H39zM41,17H42V18H41zM43,17H44V18H43zM44,17H45V18H44zM45,17H46V18H45zM46,17H47V18H46zM47,17H48V18H47zM48,17H49V18H48zM51,17H52V18H51zM58,17H59V18H58zM60,17H61V18H60zM4,18H5V19H4zM5,18H6V19H5zM8,18H9V19H8zM9,18H10V19H9zM10,18H11V19H10zM11,18H12V19H11zM12,18H13V19H12zM14,18H15V19H14zM16,18H17V19H16zM17,18H18V19H17zM20,18H21V19H20zM21,18H22V19H21zM24,18H25V19H24zM26,18H27V19H26zM27,18H28V19H27zM28,18H29V19H28zM29,18H30V19H29zM35,18H36V19H35zM38,18H39V19H38zM40,18H41V19H40zM43,18H44V19H43zM47,18H48V19H47zM48,18H49V19H48zM49,18H50V19H49zM51,18H52V19H51zM53,18H54V19H53zM54,18H55V19H54zM57,18H58V19H57zM60,18H61V19H60zM61,18H62V19H61zM63,18H64V19H63zM64,18H65V19H64zM4,19H5V20H4zM5,19H6V20H5zM6,19H7V20H6zM8,19H9V20H8zM9,19H10V20H9zM11,19H12V20H11zM12,19H13V20H12zM13,19H14V20H13zM14,19H15V20H14zM15,19H16V20H15zM17,19H18V20H17zM19,19H20V20H19zM20,19H21V20H20zM22,19H23V20H22zM23,19H24V20H23zM25,19H26V20H25zM27,19H28V20H27zM28,19H29V20H28zM29,19H30V20H29zM30,19H31V20H30zM33,19H34V20H33zM34,19H35V20H34zM35,19H36V20H35zM37,19H38V20H37zM40,19H41V20H40zM46,19H47V20H46zM48,19H49V20H48zM49,19H50V20H49zM51,19H52V20H51zM52,19H53V20H52zM58,19H59V20H58zM59,19H60V20H59zM60,19H61V20H60zM63,19H64V20H63zM5,20H6V21H5zM7,20H8V21H7zM10,20H11V21H10zM13,20H14V21H13zM18,20H19V21H18zM20,20H21V21H20zM23,20H24V21H23zM24,20H25V21H24zM26,20H27V21H26zM29,20H30V21H29zM31,20H32V21H31zM34,20H35V21H34zM35,20H36V21H35zM39,20H40V21H39zM41,20H42V21H41zM42,20H43V21H42zM47,20H48V21H47zM49,20H50V21H49zM50,20H51V21H50zM51,20H52V21H51zM52,20H53V21H52zM54,20H55V21H54zM57,20H58V21H57zM59,20H60V21H59zM5,21H6V22H5zM6,21H7V22H6zM8,21H9V22H8zM9,21H10V22H9zM11,21H12V22H11zM12,21H13V22H12zM16,21H17V22H16zM17,21H18V22H17zM19,21H20V22H19zM21,21H22V22H21zM22,21H23V22H22zM32,21H33V22H32zM41,21H42V22H41zM43,21H44V22H43zM44,21H45V22H44zM45,21H46V22H45zM46,21H47V22H46zM47,21H48V22H47zM48,21H49V22H48zM51,21H52V22H51zM52,21H53V22H52zM53,21H54V22H53zM58,21H59V22H58zM61,21H62V22H61zM62,21H63V22H62zM4,22H5V23H4zM9,22H10V23H9zM10,22H11V23H10zM11,22H12V23H11zM15,22H16V23H15zM16,22H17V23H16zM17,22H18V23H17zM21,22H22V23H21zM23,22H24V23H23zM26,22H27V23H26zM28,22H29V23H28zM29,22H30V23H29zM30,22H31V23H30zM32,22H33V23H32zM34,22H35V23H34zM35,22H36V23H35zM38,22H39V23H38zM39,22H40V23H39zM41,22H42V23H41zM45,22H46V23H45zM47,22H48V23H47zM50,22H51V23H50zM52,22H53V23H52zM54,22H55V23H54zM55,22H56V23H55zM56,22H57V23H56zM60,22H61V23H60zM61,22H62V23H61zM63,22H64V23H63zM64,22H65V23H64zM5,23H6V24H5zM8,23H9V24H8zM9,23H10V24H9zM12,23H13V24H12zM13,23H14V24H13zM15,23H16V24H15zM17,23H18V24H17zM20,23H21V24H20zM21,23H22V24H21zM22,23H23V24H22zM24,23H25V24H24zM26,23H27V24H26zM27,23H28V24H27zM30,23H31V24H30zM31,23H32V24H31zM33,23H34V24H33zM34,23H35V24H34zM35,23H36V24H35zM36,23H37V24H36zM38,23H39V24H38zM39,23H40V24H39zM42,23H43V24H42zM44,23H45V24H44zM46,23H47V24H46zM48,23H49V24H48zM51,23H52V24H51zM54,23H55V24H54zM58,23H59V24H58zM59,23H60V24H59zM60,23H61V24H60zM64,23H65V24H64zM4,24H5V25H4zM7,24H8V25H7zM10,24H11V25H10zM11,24H12V25H11zM13,24H14V25H13zM19,24H20V25H19zM24,24H25V25H24zM26,24H27V25H26zM27,24H28V25H27zM28,24H29V25H28zM29,24H30V25H29zM30,24H31V25H30zM31,24H32V25H31zM32,24H33V25H32zM33,24H34V25H33zM35,24H36V25H35zM37,24H38V25H37zM39,24H40V25H39zM40,24H41V25H40zM42,24H43V25H42zM46,24H47V25H46zM47,24H48V25H47zM51,24H52V25H51zM52,24H53V25H52zM53,24H54V25H53zM54,24H55V25H54zM56,24H57V25H56zM62,24H63V25H62zM4,25H5V26H4zM6,25H7V26H6zM7,25H8V26H7zM9,25H10V26H9zM11,25H12V26H11zM12,25H13V26H12zM14,25H15V26H14zM15,25H16V26H15zM16,25H17V26H16zM17,25H18V26H17zM18,25H19V26H18zM20,25H21V26H20zM22,25H23V26H22zM23,25H24V26H23zM25,25H26V26H25zM28,25H29V26H28zM32,25H33V26H32zM34,25H35V26H34zM35,25H36V26H35zM36,25H37V26H36zM37,25H38V26H37zM39,25H40V26H39zM41,25H42V26H41zM44,25H45V26H44zM45,25H46V26H45zM46,25H47V26H46zM47,25H48V26H47zM49,25H50V26H49zM53,25H54V26H53zM57,25H58V26H57zM58,25H59V26H58zM60,25H61V26H60zM63,25H64V26H63zM5,26H6V27H5zM6,26H7V27H6zM8,26H9V27H8zM10,26H11V27H10zM12,26H13V27H12zM13,26H14V27H13zM14,26H15V27H14zM16,26H17V27H16zM21,26H22V27H21zM24,26H25V27H24zM25,26H26V27H25zM26,26H27V27H26zM28,26H29V27H28zM29,26H30V27H29zM31,26H32V27H31zM33,26H34V27H33zM34,26H35V27H34zM35,26H36V27H35zM38,26H39V27H38zM40,26H41V27H40zM41,26H42V27H41zM42,26H43V27H42zM43,26H44V27H43zM45,26H46V27H45zM48,26H49V27H48zM50,26H51V27H50zM51,26H52V27H51zM52,26H53V27H52zM53,26H54V27H53zM54,26H55V27H54zM55,26H56V27H55zM59,26H60V27H59zM64,26H65V27H64zM4,27H5V28H4zM5,27H6V28H5zM6,27H7V28H6zM8,27H9V28H8zM12,27H13V28H12zM13,27H14V28H13zM15,27H16V28H15zM18,27H19V28H18zM19,27H20V28H19zM20,27H21V28H20zM24,27H25V28H24zM32,27H33V28H32zM34,27H35V28H34zM35,27H36V28H35zM36,27H37V28H36zM38,27H39V28H38zM41,27H42V28H41zM43,27H44V28H43zM44,27H45V28H44zM45,27H46V28H45zM46,27H47V28H46zM47,27H48V28H47zM48,27H49V28H48zM51,27H52V28H51zM52,27H53V28H52zM53,27H54V28H53zM55,27H56V28H55zM56,27H57V28H56zM57,27H58V28H57zM59,27H60V28H59zM63,27H64V28H63zM64,27H65V28H64zM4,28H5V29H4zM9,28H10V29H9zM10,28H11V29H10zM11,28H12V29H11zM12,28H13V29H12zM15,28H16V29H15zM18,28H19V29H18zM19,28H20V29H19zM20,28H21V29H20zM23,28H24V29H23zM26,28H27V29H26zM28,28H29V29H28zM29,28H30V29H29zM31,28H32V29H31zM32,28H33V29H32zM33,28H34V29H33zM34,28H35V29H34zM35,28H36V29H35zM36,28H37V29H36zM37,28H38V29H37zM38,28H39V29H38zM40,28H41V29H40zM41,28H42V29H41zM42,28H43V29H42zM47,28H48V29H47zM49,28H50V29H49zM50,28H51V29H50zM51,28H52V29H51zM52,28H53V29H52zM53,28H54V29H53zM54,28H55V29H54zM55,28H56V29H55zM56,28H57V29H56zM57,28H58V29H57zM59,28H60V29H59zM62,28H63V29H62zM64,28H65V29H64zM5,29H6V30H5zM7,29H8V30H7zM9,29H10V30H9zM13,29H14V30H13zM14,29H15V30H14zM15,29H16V30H15zM16,29H17V30H16zM19,29H20V30H19zM23,29H24V30H23zM25,29H26V30H25zM26,29H27V30H26zM27,29H28V30H27zM30,29H31V30H30zM32,29H33V30H32zM33,29H34V30H33zM35,29H36V30H35zM38,29H39V30H38zM41,29H42V30H41zM43,29H44V30H43zM44,29H45V30H44zM45,29H46V30H45zM46,29H47V30H46zM47,29H48V30H47zM48,29H49V30H48zM53,29H54V30H53zM58,29H59V30H58zM59,29H60V30H59zM60,29H61V30H60zM61,29H62V30H61zM62,29H63V30H62zM7,30H8V31H7zM8,30H9V31H8zM9,30H10V31H9zM10,30H11V31H10zM14,30H15V31H14zM15,30H16V31H15zM16,30H17V31H16zM17,30H18V31H17zM18,30H19V31H18zM20,30H21V31H20zM22,30H23V31H22zM23,30H24V31H23zM24,30H25V31H24zM32,30H33V31H32zM33,30H34V31H33zM37,30H38V31H37zM39,30H40V31H39zM40,30H41V31H40zM43,30H44V31H43zM44,30H45V31H44zM47,30H48V31H47zM49,30H50V31H49zM50,30H51V31H50zM55,30H56V31H55zM56,30H57V31H56zM59,30H60V31H59zM60,30H61V31H60zM63,30H64V31H63zM64,30H65V31H64zM6,31H7V32H6zM8,31H9V32H8zM9,31H10V32H9zM11,31H12V32H11zM14,31H15V32H14zM15,31H16V32H15zM23,31H24V32H23zM24,31H25V32H24zM25,31H26V32H25zM26,31H27V32H26zM27,31H28V32H27zM30,31H31V32H30zM31,31H32V32H31zM33,31H34V32H33zM34,31H35V32H34zM35,31H36V32H35zM37,31H38V32H37zM39,31H40V32H39zM42,31H43V32H42zM44,31H45V32H44zM47,31H48V32H47zM48,31H49V32H48zM50,31H51V32H50zM51,31H52V32H51zM52,31H53V32H52zM55,31H56V32H55zM57,31H58V32H57zM59,31H60V32H59zM60,31H61V32H60zM63,31H64V32H63zM4,32H5V33H4zM7,32H8V33H7zM8,32H9V33H8zM9,32H10V33H9zM10,32H11V33H10zM11,32H12V33H11zM12,32H13V33H12zM14,32H15V33H14zM16,32H17V33H16zM17,32H18V33H17zM19,32H20V33H19zM20,32H21V33H20zM21,32H22V33H21zM22,32H23V33H22zM23,32H24V33H23zM24,32H25V33H24zM26,32H27V33H26zM28,32H29V33H28zM31,32H32V33H31zM32,32H33V33H32zM33,32H34V33H33zM34,32H35V33H34zM35,32H36V33H35zM36,32H37V33H36zM40,32H41V33H40zM41,32H42V33H41zM43,32H44V33H43zM45,32H46V33H45zM46,32H47V33H46zM49,32H50V33H49zM51,32H52V33H51zM52,32H53V33H52zM53,32H54V33H53zM56,32H57V33H56zM57,32H58V33H57zM58,32H59V33H58zM59,32H60V33H59zM60,32H61V33H60zM61,32H62V33H61zM62,32H63V33H62zM64,32H65V33H64zM4,33H5V34H4zM5,33H6V34H5zM6,33H7V34H6zM7,33H8V34H7zM8,33H9V34H8zM12,33H13V34H12zM13,33H14V34H13zM16,33H17V34H16zM24,33H25V34H24zM25,33H26V34H25zM26,33H27V34H26zM27,33H28V34H27zM28,33H29V34H28zM29,33H30V34H29zM30,33H31V34H30zM31,33H32V34H31zM32,33H33V34H32zM36,33H37V34H36zM41,33H42V34H41zM43,33H44V34H43zM44,33H45V34H44zM45,33H46V34H45zM46,33H47V34H46zM48,33H49V34H48zM52,33H53V34H52zM55,33H56V34H55zM56,33H57V34H56zM60,33H61V34H60zM64,33H65V34H64zM4,34H5V35H4zM7,34H8V35H7zM8,34H9V35H8zM10,34H11V35H10zM12,34H13V35H12zM16,34H17V35H16zM18,34H19V35H18zM19,34H20V35H19zM20,34H21V35H20zM21,34H22V35H21zM22,34H23V35H22zM27,34H28V35H27zM32,34H33V35H32zM34,34H35V35H34zM36,34H37V35H36zM37,34H38V35H37zM38,34H39V35H38zM39,34H40V35H39zM40,34H41V35H40zM42,34H43V35H42zM49,34H50V35H49zM50,34H51V35H50zM53,34H54V35H53zM54,34H55V35H54zM56,34H57V35H56zM58,34H59V35H58zM60,34H61V35H60zM63,34H64V35H63zM64,34H65V35H64zM5,35H6V36H5zM8,35H9V36H8zM12,35H13V36H12zM13,35H14V36H13zM16,35H17V36H16zM17,35H18V36H17zM19,35H20V36H19zM20,35H21V36H20zM21,35H22V36H21zM24,35H25V36H24zM26,35H27V36H26zM28,35H29V36H28zM29,35H30V36H29zM32,35H33V36H32zM36,35H37V36H36zM37,35H38V36H37zM39,35H40V36H39zM41,35H42V36H41zM42,35H43V36H42zM44,35H45V36H44zM46,35H47V36H46zM48,35H49V36H48zM49,35H50V36H49zM55,35H56V36H55zM56,35H57V36H56zM60,35H61V36H60zM63,35H64V36H63zM7,36H8V37H7zM8,36H9V37H8zM9,36H10V37H9zM10,36H11V37H10zM11,36H12V37H11zM12,36H13V37H12zM15,36H16V37H15zM20,36H21V37H20zM22,36H23V37H22zM23,36H24V37H23zM24,36H25V37H24zM25,36H26V37H25zM26,36H27V37H26zM28,36H29V37H28zM29,36H30V37H29zM31,36H32V37H31zM32,36H33V37H32zM33,36H34V37H33zM34,36H35V37H34zM35,36H36V37H35zM36,36H37V37H36zM37,36H38V37H37zM39,36H40V37H39zM40,36H41V37H40zM41,36H42V37H41zM42,36H43V37H42zM45,36H46V37H45zM49,36H50V37H49zM50,36H51V37H50zM51,36H52V37H51zM52,36H53V37H52zM53,36H54V37H53zM54,36H55V37H54zM55,36H56V37H55zM56,36H57V37H56zM57,36H58V37H57zM58,36H59V37H58zM59,36H60V37H59zM60,36H61V37H60zM61,36H62V37H61zM63,36H64V37H63zM4,37H5V38H4zM5,37H6V38H5zM7,37H8V38H7zM8,37H9V38H8zM12,37H13V38H12zM13,37H14V38H13zM15,37H16V38H15zM16,37H17V38H16zM17,37H18V38H17zM19,37H20V38H19zM20,37H21V38H20zM21,37H22V38H21zM22,37H23V38H22zM23,37H24V38H23zM25,37H26V38H25zM26,37H27V38H26zM27,37H28V38H27zM28,37H29V38H28zM31,37H32V38H31zM32,37H33V38H32zM39,37H40V38H39zM41,37H42V38H41zM45,37H46V38H45zM46,37H47V38H46zM47,37H48V38H47zM53,37H54V38H53zM9,38H10V39H9zM10,38H11V39H10zM12,38H13V39H12zM13,38H14V39H13zM15,38H16V39H15zM19,38H20V39H19zM20,38H21V39H20zM21,38H22V39H21zM23,38H24V39H23zM24,38H25V39H24zM26,38H27V39H26zM27,38H28V39H27zM28,38H29V39H28zM29,38H30V39H29zM31,38H32V39H31zM33,38H34V39H33zM34,38H35V39H34zM37,38H38V39H37zM38,38H39V39H38zM39,38H40V39H39zM42,38H43V39H42zM45,38H46V39H45zM46,38H47V39H46zM47,38H48V39H47zM50,38H51V39H50zM51,38H52V39H51zM53,38H54V39H53zM54,38H55V39H54zM55,38H56V39H55zM56,38H57V39H56zM57,38H58V39H57zM58,38H59V39H58zM60,38H61V39H60zM61,38H62V39H61zM63,38H64V39H63zM64,38H65V39H64zM4,39H5V40H4zM5,39H6V40H5zM6,39H7V40H6zM7,39H8V40H7zM8,39H9V40H8zM9,39H10V40H9zM16,39H17V40H16zM17,39H18V40H17zM18,39H19V40H18zM21,39H22V40H21zM22,39H23V40H22zM24,39H25V40H24zM25,39H26V40H25zM28,39H29V40H28zM30,39H31V40H30zM32,39H33V40H32zM33,39H34V40H33zM34,39H35V40H34zM35,39H36V40H35zM37,39H38V40H37zM39,39H40V40H39zM40,39H41V40H40zM44,39H45V40H44zM46,39H47V40H46zM48,39H49V40H48zM49,39H50V40H49zM51,39H52V40H51zM54,39H55V40H54zM56,39H57V40H56zM59,39H60V40H59zM63,39H64V40H63zM64,39H65V40H64zM4,40H5V41H4zM5,40H6V41H5zM7,40H8V41H7zM10,40H11V41H10zM16,40H17V41H16zM21,40H22V41H21zM22,40H23V41H22zM25,40H26V41H25zM26,40H27V41H26zM28,40H29V41H28zM33,40H34V41H33zM34,40H35V41H34zM35,40H36V41H35zM36,40H37V41H36zM40,40H41V41H40zM41,40H42V41H41zM43,40H44V41H43zM47,40H48V41H47zM50,40H51V41H50zM51,40H52V41H51zM52,40H53V41H52zM53,40H54V41H53zM55,40H56V41H55zM56,40H57V41H56zM58,40H59V41H58zM59,40H60V41H59zM60,40H61V41H60zM61,40H62V41H61zM62,40H63V41H62zM63,40H64V41H63zM4,41H5V42H4zM9,41H10V42H9zM11,41H12V42H11zM12,41H13V42H12zM13,41H14V42H13zM16,41H17V42H16zM17,41H18V42H17zM18,41H19V42H18zM19,41H20V42H19zM20,41H21V42H20zM22,41H23V42H22zM24,41H25V42H24zM25,41H26V42H25zM27,41H28V42H27zM28,41H29V42H28zM29,41H30V42H29zM30,41H31V42H30zM32,41H33V42H32zM35,41H36V42H35zM36,41H37V42H36zM39,41H40V42H39zM40,41H41V42H40zM41,41H42V42H41zM43,41H44V42H43zM45,41H46V42H45zM46,41H47V42H46zM47,41H48V42H47zM51,41H52V42H51zM53,41H54V42H53zM56,41H57V42H56zM57,41H58V42H57zM5,42H6V43H5zM7,42H8V43H7zM8,42H9V43H8zM10,42H11V43H10zM11,42H12V43H11zM12,42H13V43H12zM13,42H14V43H13zM14,42H15V43H14zM15,42H16V43H15zM18,42H19V43H18zM19,42H20V43H19zM22,42H23V43H22zM23,42H24V43H23zM25,42H26V43H25zM26,42H27V43H26zM31,42H32V43H31zM33,42H34V43H33zM37,42H38V43H37zM40,42H41V43H40zM42,42H43V43H42zM44,42H45V43H44zM46,42H47V43H46zM47,42H48V43H47zM48,42H49V43H48zM49,42H50V43H49zM51,42H52V43H51zM55,42H56V43H55zM57,42H58V43H57zM58,42H59V43H58zM61,42H62V43H61zM63,42H64V43H63zM5,43H6V44H5zM7,43H8V44H7zM11,43H12V44H11zM15,43H16V44H15zM16,43H17V44H16zM17,43H18V44H17zM19,43H20V44H19zM23,43H24V44H23zM25,43H26V44H25zM26,43H27V44H26zM29,43H30V44H29zM31,43H32V44H31zM32,43H33V44H32zM34,43H35V44H34zM35,43H36V44H35zM40,43H41V44H40zM42,43H43V44H42zM43,43H44V44H43zM44,43H45V44H44zM47,43H48V44H47zM48,43H49V44H48zM49,43H50V44H49zM50,43H51V44H50zM51,43H52V44H51zM56,43H57V44H56zM58,43H59V44H58zM64,43H65V44H64zM5,44H6V45H5zM6,44H7V45H6zM8,44H9V45H8zM10,44H11V45H10zM11,44H12V45H11zM12,44H13V45H12zM14,44H15V45H14zM15,44H16V45H15zM16,44H17V45H16zM18,44H19V45H18zM19,44H20V45H19zM20,44H21V45H20zM21,44H22V45H21zM23,44H24V45H23zM25,44H26V45H25zM26,44H27V45H26zM27,44H28V45H27zM28,44H29V45H28zM31,44H32V45H31zM34,44H35V45H34zM35,44H36V45H35zM36,44H37V45H36zM39,44H40V45H39zM40,44H41V45H40zM42,44H43V45H42zM45,44H46V45H45zM46,44H47V45H46zM49,44H50V45H49zM52,44H53V45H52zM53,44H54V45H53zM54,44H55V45H54zM55,44H56V45H55zM56,44H57V45H56zM57,44H58V45H57zM59,44H60V45H59zM60,44H61V45H60zM62,44H63V45H62zM64,44H65V45H64zM8,45H9V46H8zM11,45H12V46H11zM13,45H14V46H13zM18,45H19V46H18zM21,45H22V46H21zM22,45H23V46H22zM23,45H24V46H23zM24,45H25V46H24zM25,45H26V46H25zM26,45H27V46H26zM28,45H29V46H28zM29,45H30V46H29zM32,45H33V46H32zM35,45H36V46H35zM36,45H37V46H36zM39,45H40V46H39zM40,45H41V46H40zM45,45H46V46H45zM46,45H47V46H46zM47,45H48V46H47zM51,45H52V46H51zM52,45H53V46H52zM53,45H54V46H53zM55,45H56V46H55zM57,45H58V46H57zM58,45H59V46H58zM61,45H62V46H61zM62,45H63V46H62zM64,45H65V46H64zM4,46H5V47H4zM5,46H6V47H5zM7,46H8V47H7zM8,46H9V47H8zM9,46H10V47H9zM10,46H11V47H10zM14,46H15V47H14zM15,46H16V47H15zM18,46H19V47H18zM20,46H21V47H20zM22,46H23V47H22zM23,46H24V47H23zM26,46H27V47H26zM27,46H28V47H27zM28,46H29V47H28zM29,46H30V47H29zM31,46H32V47H31zM32,46H33V47H32zM34,46H35V47H34zM37,46H38V47H37zM39,46H40V47H39zM42,46H43V47H42zM47,46H48V47H47zM48,46H49V47H48zM52,46H53V47H52zM56,46H57V47H56zM57,46H58V47H57zM58,46H59V47H58zM63,46H64V47H63zM64,46H65V47H64zM7,47H8V48H7zM9,47H10V48H9zM12,47H13V48H12zM13,47H14V48H13zM14,47H15V48H14zM21,47H22V48H21zM23,47H24V48H23zM25,47H26V48H25zM26,47H27V48H26zM28,47H29V48H28zM29,47H30V48H29zM31,47H32V48H31zM32,47H33V48H32zM35,47H36V48H35zM37,47H38V48H37zM39,47H40V48H39zM41,47H42V48H41zM42,47H43V48H42zM43,47H44V48H43zM47,47H48V48H47zM48,47H49V48H48zM51,47H52V48H51zM53,47H54V48H53zM54,47H55V48H54zM56,47H57V48H56zM57,47H58V48H57zM58,47H59V48H58zM59,47H60V48H59zM61,47H62V48H61zM63,47H64V48H63zM5,48H6V49H5zM7,48H8V49H7zM8,48H9V49H8zM9,48H10V49H9zM10,48H11V49H10zM16,48H17V49H16zM18,48H19V49H18zM19,48H20V49H19zM20,48H21V49H20zM23,48H24V49H23zM24,48H25V49H24zM28,48H29V49H28zM29,48H30V49H29zM31,48H32V49H31zM32,48H33V49H32zM33,48H34V49H33zM34,48H35V49H34zM35,48H36V49H35zM36,48H37V49H36zM40,48H41V49H40zM41,48H42V49H41zM46,48H47V49H46zM47,48H48V49H47zM49,48H50V49H49zM51,48H52V49H51zM52,48H53V49H52zM54,48H55V49H54zM55,48H56V49H55zM56,48H57V49H56zM57,48H58V49H57zM58,48H59V49H58zM59,48H60V49H59zM60,48H61V49H60zM61,48H62V49H61zM62,48H63V49H62zM63,48H64V49H63zM64,48H65V49H64zM4,49H5V50H4zM8,49H9V50H8zM11,49H12V50H11zM13,49H14V50H13zM17,49H18V50H17zM18,49H19V50H18zM20,49H21V50H20zM22,49H23V50H22zM23,49H24V50H23zM25,49H26V50H25zM26,49H27V50H26zM27,49H28V50H27zM28,49H29V50H28zM30,49H31V50H30zM31,49H32V50H31zM35,49H36V50H35zM36,49H37V50H36zM37,49H38V50H37zM39,49H40V50H39zM40,49H41V50H40zM46,49H47V50H46zM48,49H49V50H48zM53,49H54V50H53zM57,49H58V50H57zM58,49H59V50H58zM59,49H60V50H59zM64,49H65V50H64zM4,50H5V51H4zM8,50H9V51H8zM10,50H11V51H10zM13,50H14V51H13zM15,50H16V51H15zM16,50H17V51H16zM17,50H18V51H17zM21,50H22V51H21zM22,50H23V51H22zM23,50H24V51H23zM24,50H25V51H24zM25,50H26V51H25zM27,50H28V51H27zM31,50H32V51H31zM32,50H33V51H32zM33,50H34V51H33zM35,50H36V51H35zM36,50H37V51H36zM39,50H40V51H39zM43,50H44V51H43zM45,50H46V51H45zM50,50H51V51H50zM52,50H53V51H52zM55,50H56V51H55zM57,50H58V51H57zM58,50H59V51H58zM60,50H61V51H60zM61,50H62V51H61zM62,50H63V51H62zM63,50H64V51H63zM64,50H65V51H64zM7,51H8V52H7zM12,51H13V52H12zM13,51H14V52H13zM15,51H16V52H15zM16,51H17V52H16zM19,51H20V52H19zM21,51H22V52H21zM24,51H25V52H24zM26,51H27V52H26zM29,51H30V52H29zM31,51H32V52H31zM38,51H39V52H38zM41,51H42V52H41zM42,51H43V52H42zM44,51H45V52H44zM45,51H46V52H45zM49,51H50V52H49zM50,51H51V52H50zM51,51H52V52H51zM52,51H53V52H52zM55,51H56V52H55zM56,51H57V52H56zM57,51H58V52H57zM58,51H59V52H58zM59,51H60V52H59zM63,51H64V52H63zM64,51H65V52H64zM5,52H6V53H5zM6,52H7V53H6zM7,52H8V53H7zM10,52H11V53H10zM11,52H12V53H11zM13,52H14V53H13zM14,52H15V53H14zM20,52H21V53H20zM22,52H23V53H22zM25,52H26V53H25zM27,52H28V53H27zM28,52H29V53H28zM31,52H32V53H31zM33,52H34V53H33zM35,52H36V53H35zM36,52H37V53H36zM37,52H38V53H37zM38,52H39V53H38zM39,52H40V53H39zM40,52H41V53H40zM42,52H43V53H42zM43,52H44V53H43zM46,52H47V53H46zM47,52H48V53H47zM51,52H52V53H51zM52,52H53V53H52zM54,52H55V53H54zM55,52H56V53H55zM56,52H57V53H56zM57,52H58V53H57zM59,52H60V53H59zM62,52H63V53H62zM63,52H64V53H63zM4,53H5V54H4zM5,53H6V54H5zM11,53H12V54H11zM14,53H15V54H14zM19,53H20V54H19zM21,53H22V54H21zM23,53H24V54H23zM24,53H25V54H24zM27,53H28V54H27zM28,53H29V54H28zM30,53H31V54H30zM31,53H32V54H31zM32,53H33V54H32zM34,53H35V54H34zM35,53H36V54H35zM36,53H37V54H36zM37,53H38V54H37zM41,53H42V54H41zM45,53H46V54H45zM46,53H47V54H46zM47,53H48V54H47zM48,53H49V54H48zM51,53H52V54H51zM52,53H53V54H52zM55,53H56V54H55zM57,53H58V54H57zM59,53H60V54H59zM61,53H62V54H61zM63,53H64V54H63zM64,53H65V54H64zM6,54H7V55H6zM7,54H8V55H7zM8,54H9V55H8zM9,54H10V55H9zM10,54H11V55H10zM11,54H12V55H11zM12,54H13V55H12zM14,54H15V55H14zM15,54H16V55H15zM23,54H24V55H23zM24,54H25V55H24zM25,54H26V55H25zM29,54H30V55H29zM30,54H31V55H30zM31,54H32V55H31zM32,54H33V55H32zM37,54H38V55H37zM38,54H39V55H38zM42,54H43V55H42zM43,54H44V55H43zM45,54H46V55H45zM48,54H49V55H48zM49,54H50V55H49zM50,54H51V55H50zM51,54H52V55H51zM52,54H53V55H52zM53,54H54V55H53zM54,54H55V55H54zM55,54H56V55H55zM56,54H57V55H56zM57,54H58V55H57zM58,54H59V55H58zM63,54H64V55H63zM64,54H65V55H64zM4,55H5V56H4zM5,55H6V56H5zM6,55H7V56H6zM8,55H9V56H8zM11,55H12V56H11zM12,55H13V56H12zM13,55H14V56H13zM14,55H15V56H14zM18,55H19V56H18zM19,55H20V56H19zM22,55H23V56H22zM23,55H24V56H23zM26,55H27V56H26zM27,55H28V56H27zM28,55H29V56H28zM31,55H32V56H31zM32,55H33V56H32zM33,55H34V56H33zM35,55H36V56H35zM36,55H37V56H36zM38,55H39V56H38zM41,55H42V56H41zM43,55H44V56H43zM44,55H45V56H44zM45,55H46V56H45zM46,55H47V56H46zM48,55H49V56H48zM49,55H50V56H49zM50,55H51V56H50zM53,55H54V56H53zM57,55H58V56H57zM63,55H64V56H63zM4,56H5V57H4zM5,56H6V57H5zM6,56H7V57H6zM7,56H8V57H7zM10,56H11V57H10zM13,56H14V57H13zM17,56H18V57H17zM19,56H20V57H19zM21,56H22V57H21zM23,56H24V57H23zM24,56H25V57H24zM25,56H26V57H25zM28,56H29V57H28zM29,56H30V57H29zM31,56H32V57H31zM32,56H33V57H32zM33,56H34V57H33zM34,56H35V57H34zM35,56H36V57H35zM36,56H37V57H36zM37,56H38V57H37zM40,56H41V57H40zM41,56H42V57H41zM42,56H43V57H42zM46,56H47V57H46zM47,56H48V57H47zM52,56H53V57H52zM53,56H54V57H53zM55,56H56V57H55zM56,56H57V57H56zM57,56H58V57H57zM58,56H59V57H58zM59,56H60V57H59zM60,56H61V57H60zM63,56H64V57H63zM12,57H13V58H12zM13,57H14V58H13zM16,57H17V58H16zM17,57H18V58H17zM18,57H19V58H18zM20,57H21V58H20zM23,57H24V58H23zM25,57H26V58H25zM27,57H28V58H27zM28,57H29V58H28zM31,57H32V58H31zM32,57H33V58H32zM36,57H37V58H36zM39,57H40V58H39zM41,57H42V58H41zM43,57H44V58H43zM44,57H45V58H44zM45,57H46V58H45zM46,57H47V58H46zM48,57H49V58H48zM51,57H52V58H51zM56,57H57V58H56zM60,57H61V58H60zM4,58H5V59H4zM5,58H6V59H5zM6,58H7V59H6zM7,58H8V59H7zM8,58H9V59H8zM9,58H10V59H9zM10,58H11V59H10zM15,58H16V59H15zM17,58H18V59H17zM18,58H19V59H18zM19,58H20V59H19zM20,58H21V59H20zM23,58H24V59H23zM25,58H26V59H25zM26,58H27V59H26zM27,58H28V59H27zM28,58H29V59H28zM32,58H33V59H32zM34,58H35V59H34zM36,58H37V59H36zM41,58H42V59H41zM42,58H43V59H42zM46,58H47V59H46zM47,58H48V59H47zM48,58H49V59H48zM49,58H50V59H49zM51,58H52V59H51zM52,58H53V59H52zM53,58H54V59H53zM54,58H55V59H54zM56,58H57V59H56zM58,58H59V59H58zM60,58H61V59H60zM61,58H62V59H61zM62,58H63V59H62zM64,58H65V59H64zM4,59H5V60H4zM10,59H11V60H10zM12,59H13V60H12zM13,59H14V60H13zM14,59H15V60H14zM15,59H16V60H15zM16,59H17V60H16zM18,59H19V60H18zM23,59H24V60H23zM27,59H28V60H27zM32,59H33V60H32zM36,59H37V60H36zM40,59H41V60H40zM41,59H42V60H41zM42,59H43V60H42zM43,59H44V60H43zM44,59H45V60H44zM51,59H52V60H51zM52,59H53V60H52zM56,59H57V60H56zM60,59H61V60H60zM63,59H64V60H63zM4,60H5V61H4zM6,60H7V61H6zM7,60H8V61H7zM8,60H9V61H8zM10,60H11V61H10zM12,60H13V61H12zM14,60H15V61H14zM15,60H16V61H15zM17,60H18V61H17zM18,60H19V61H18zM19,60H20V61H19zM22,60H23V61H22zM29,60H30V61H29zM31,60H32V61H31zM32,60H33V61H32zM33,60H34V61H33zM34,60H35V61H34zM35,60H36V61H35zM36,60H37V61H36zM37,60H38V61H37zM38,60H39V61H38zM39,60H40V61H39zM46,60H47V61H46zM47,60H48V61H47zM49,60H50V61H49zM51,60H52V61H51zM52,60H53V61H52zM53,60H54V61H53zM54,60H55V61H54zM56,60H57V61H56zM57,60H58V61H57zM58,60H59V61H58zM59,60H60V61H59zM60,60H61V61H60zM61,60H62V61H61zM62,60H63V61H62zM63,60H64V61H63zM4,61H5V62H4zM6,61H7V62H6zM7,61H8V62H7zM8,61H9V62H8zM10,61H11V62H10zM12,61H13V62H12zM13,61H14V62H13zM17,61H18V62H17zM18,61H19V62H18zM19,61H20V62H19zM21,61H22V62H21zM24,61H25V62H24zM25,61H26V62H25zM27,61H28V62H27zM28,61H29V62H28zM33,61H34V62H33zM34,61H35V62H34zM36,61H37V62H36zM43,61H44V62H43zM44,61H45V62H44zM45,61H46V62H45zM46,61H47V62H46zM47,61H48V62H47zM48,61H49V62H48zM51,61H52V62H51zM53,61H54V62H53zM55,61H56V62H55zM56,61H57V62H56zM57,61H58V62H57zM59,61H60V62H59zM60,61H61V62H60zM64,61H65V62H64zM4,62H5V63H4zM6,62H7V63H6zM7,62H8V63H7zM8,62H9V63H8zM10,62H11V63H10zM12,62H13V63H12zM14,62H15V63H14zM15,62H16V63H15zM17,62H18V63H17zM18,62H19V63H18zM19,62H20V63H19zM21,62H22V63H21zM22,62H23V63H22zM25,62H26V63H25zM26,62H27V63H26zM27,62H28V63H27zM28,62H29V63H28zM29,62H30V63H29zM30,62H31V63H30zM32,62H33V63H32zM35,62H36V63H35zM36,62H37V63H36zM37,62H38V63H37zM39,62H40V63H39zM42,62H43V63H42zM43,62H44V63H43zM46,62H47V63H46zM50,62H51V63H50zM51,62H52V63H51zM54,62H55V63H54zM57,62H58V63H57zM59,62H60V63H59zM61,62H62V63H61zM64,62H65V63H64zM4,63H5V64H4zM10,63H11V64H10zM14,63H15V64H14zM15,63H16V64H15zM17,63H18V64H17zM19,63H20V64H19zM20,63H21V64H20zM21,63H22V64H21zM22,63H23V64H22zM24,63H25V64H24zM25,63H26V64H25zM27,63H28V64H27zM30,63H31V64H30zM33,63H34V64H33zM41,63H42V64H41zM42,63H43V64H42zM43,63H44V64H43zM44,63H45V64H44zM45,63H46V64H45zM46,63H47V64H46zM49,63H50V64H49zM51,63H52V64H51zM52,63H53V64H52zM54,63H55V64H54zM56,63H57V64H56zM57,63H58V64H57zM58,63H59V64H58zM59,63H60V64H59zM64,63H65V64H64zM4,64H5V65H4zM5,64H6V65H5zM6,64H7V65H6zM7,64H8V65H7zM8,64H9V65H8zM9,64H10V65H9zM10,64H11V65H10zM12,64H13V65H12zM13,64H14V65H13zM14,64H15V65H14zM15,64H16V65H15zM16,64H17V65H16zM18,64H19V65H18zM19,64H20V65H19zM20,64H21V65H20zM25,64H26V65H25zM26,64H27V65H26zM28,64H29V65H28zM29,64H30V65H29zM30,64H31V65H30zM33,64H34V65H33zM34,64H35V65H34zM35,64H36V65H35zM38,64H39V65H38zM39,64H40V65H39zM40,64H41V65H40zM41,64H42V65H41zM45,64H46V65H45zM47,64H48V65H47zM51,64H52V65H51zM52,64H53V65H52zM54,64H55V65H54zM55,64H56V65H55zM56,64H57V65H56zM57,64H58V65H57zM59,64H60V65H59zM60,64H61V65H60zM62,64H63V65H62zM63,64H64V65H63zM64,64H65V65H64z" id="qr-path" fill="#000000" fill-opacity="1" fill-rule="nonzero" stroke="none" /></svg>